<svg width="216" height="48" viewBox="0 0 216 48" fill="none" xmlns="http://www.w3.org/2000/svg">
<path d="M37.921 24.0489L45.7048 16.4236C47.501 14.664 47.501 11.9267 45.7048 10.167L34.6278 21.0183L32.632 19.0631L40.5156 11.3401C42.3119 9.58045 42.3119 6.84319 40.5156 5.08351L29.3389 16.0326L27.343 14.0774L35.3264 6.25663C37.1227 4.49695 37.1227 1.75967 35.3264 0L24.0499 10.8513L16.8649 3.71487C15.0686 1.9552 12.2744 1.9552 10.4782 3.71487L20.8565 13.8819L18.7609 15.9348L11.5759 8.89614C9.77963 7.13646 6.98543 7.13646 5.18917 8.89614L15.5676 19.0631L13.5717 21.0183L6.38669 13.9796C4.59043 12.22 1.79626 12.22 0 13.9796L10.1788 23.9511L2.395 31.5764C0.598746 33.336 0.598746 36.0733 2.395 37.833L13.4719 26.9817L15.4678 28.9369L7.5842 36.6599C5.78795 38.4195 5.78795 41.1568 7.5842 42.9165L18.7609 31.9674L20.7567 33.9226L12.7734 41.7434C10.9771 43.5031 10.9771 46.2403 12.7734 48L23.9501 37.0509L31.1351 44.1874C32.9314 45.9471 35.7256 45.9471 37.5218 44.1874L27.1434 34.0204L29.2391 31.9674L36.4241 39.0061C38.2204 40.7658 41.0145 40.7658 42.8108 39.0061L32.4324 28.8391L34.4283 26.8839L41.6133 33.9226C43.4095 35.6823 46.2037 35.6823 48 33.9226L37.921 24.0489ZM24.0499 17.0102L26.0457 18.9654L23.9501 21.0183L21.9543 19.0631L24.0499 17.0102ZM18.7609 25.8086L16.9647 24.0489L18.7609 22.2892L20.5572 24.1466L18.7609 25.8086ZM24.0499 30.8921L22.0541 28.9369L24.1497 26.8839L26.1455 28.8391L24.0499 30.8921ZM27.5426 23.9511L29.3389 22.1915L31.1351 23.9511L29.3389 25.7108L27.5426 23.9511Z" fill="#7B62FF"/>
<path d="M77.7955 24.2727C77.7955 26.1932 77.4261 27.821 76.6875 29.1562C75.9489 30.4915 74.9489 31.5057 73.6875 32.1989C72.4318 32.892 71.0227 33.2386 69.4602 33.2386C67.892 33.2386 66.4801 32.8892 65.2244 32.1903C63.9688 31.4915 62.9716 30.4773 62.233 29.1477C61.5 27.8125 61.1335 26.1875 61.1335 24.2727C61.1335 22.3523 61.5 20.7244 62.233 19.3892C62.9716 18.054 63.9688 17.0398 65.2244 16.3466C66.4801 15.6534 67.892 15.3068 69.4602 15.3068C71.0227 15.3068 72.4318 15.6534 73.6875 16.3466C74.9489 17.0398 75.9489 18.054 76.6875 19.3892C77.4261 20.7244 77.7955 22.3523 77.7955 24.2727ZM73.483 24.2727C73.483 23.1364 73.321 22.1761 72.9972 21.392C72.679 20.608 72.2188 20.0142 71.6165 19.6108C71.0199 19.2074 70.3011 19.0057 69.4602 19.0057C68.625 19.0057 67.9063 19.2074 67.304 19.6108C66.7017 20.0142 66.2386 20.608 65.9148 21.392C65.5966 22.1761 65.4375 23.1364 65.4375 24.2727C65.4375 25.4091 65.5966 26.3693 65.9148 27.1534C66.2386 27.9375 66.7017 28.5312 67.304 28.9347C67.9063 29.3381 68.625 29.5398 69.4602 29.5398C70.3011 29.5398 71.0199 29.3381 71.6165 28.9347C72.2188 28.5312 72.679 27.9375 72.9972 27.1534C73.321 26.3693 73.483 25.4091 73.483 24.2727ZM80.2585 15.5455H85.483L89.9148 26.3523H90.1193L94.5511 15.5455H99.7756V33H95.6676V22.2784H95.5227L91.3295 32.8892H88.7045L84.5114 22.2188H84.3665V33H80.2585V15.5455ZM118.881 24.2727C118.881 26.1932 118.512 27.821 117.773 29.1562C117.035 30.4915 116.035 31.5057 114.773 32.1989C113.518 32.892 112.109 33.2386 110.546 33.2386C108.978 33.2386 107.566 32.8892 106.31 32.1903C105.055 31.4915 104.058 30.4773 103.319 29.1477C102.586 27.8125 102.219 26.1875 102.219 24.2727C102.219 22.3523 102.586 20.7244 103.319 19.3892C104.058 18.054 105.055 17.0398 106.31 16.3466C107.566 15.6534 108.978 15.3068 110.546 15.3068C112.109 15.3068 113.518 15.6534 114.773 16.3466C116.035 17.0398 117.035 18.054 117.773 19.3892C118.512 20.7244 118.881 22.3523 118.881 24.2727ZM114.569 24.2727C114.569 23.1364 114.407 22.1761 114.083 21.392C113.765 20.608 113.305 20.0142 112.702 19.6108C112.106 19.2074 111.387 19.0057 110.546 19.0057C109.711 19.0057 108.992 19.2074 108.39 19.6108C107.788 20.0142 107.325 20.608 107.001 21.392C106.683 22.1761 106.523 23.1364 106.523 24.2727C106.523 25.4091 106.683 26.3693 107.001 27.1534C107.325 27.9375 107.788 28.5312 108.39 28.9347C108.992 29.3381 109.711 29.5398 110.546 29.5398C111.387 29.5398 112.106 29.3381 112.702 28.9347C113.305 28.5312 113.765 27.9375 114.083 27.1534C114.407 26.3693 114.569 25.4091 114.569 24.2727ZM130.779 20.7784C130.722 20.1534 130.469 19.6676 130.021 19.321C129.577 18.9688 128.944 18.7926 128.12 18.7926C127.575 18.7926 127.12 18.8636 126.756 19.0057C126.393 19.1477 126.12 19.3438 125.938 19.5938C125.756 19.8381 125.663 20.1193 125.657 20.4375C125.646 20.6989 125.697 20.929 125.81 21.1278C125.93 21.3267 126.1 21.5028 126.322 21.6562C126.549 21.804 126.822 21.9347 127.14 22.0483C127.458 22.1619 127.816 22.2614 128.214 22.3466L129.714 22.6875C130.577 22.875 131.339 23.125 131.998 23.4375C132.663 23.75 133.219 24.1222 133.668 24.554C134.123 24.9858 134.467 25.483 134.7 26.0455C134.933 26.608 135.052 27.2386 135.058 27.9375C135.052 29.0398 134.773 29.9858 134.222 30.7756C133.671 31.5653 132.879 32.1705 131.844 32.5909C130.816 33.0114 129.575 33.2216 128.12 33.2216C126.66 33.2216 125.387 33.0028 124.302 32.5653C123.217 32.1278 122.373 31.4631 121.771 30.571C121.168 29.679 120.859 28.5511 120.842 27.1875H124.881C124.915 27.75 125.066 28.2188 125.333 28.5938C125.6 28.9688 125.967 29.2528 126.433 29.446C126.904 29.6392 127.45 29.7358 128.069 29.7358C128.637 29.7358 129.12 29.6591 129.518 29.5057C129.921 29.3523 130.231 29.1392 130.447 28.8665C130.663 28.5937 130.773 28.2812 130.779 27.929C130.773 27.5994 130.671 27.3182 130.472 27.0852C130.273 26.8466 129.967 26.642 129.552 26.4716C129.143 26.2955 128.62 26.1335 127.984 25.9858L126.16 25.5597C124.648 25.2131 123.458 24.6534 122.589 23.8807C121.719 23.1023 121.288 22.0511 121.293 20.7273C121.288 19.6477 121.577 18.7017 122.163 17.8892C122.748 17.0767 123.558 16.4432 124.592 15.9886C125.626 15.5341 126.805 15.3068 128.129 15.3068C129.481 15.3068 130.654 15.5369 131.648 15.9972C132.648 16.4517 133.424 17.0909 133.975 17.9148C134.526 18.7386 134.808 19.6932 134.819 20.7784H130.779ZM137.188 33V15.5455H141.407V22.9261H141.637L147.407 15.5455H152.376L146.188 23.3352L152.487 33H147.441L143.094 26.1392L141.407 28.2699V33H137.188ZM158.259 15.5455V33H154.04V15.5455H158.259ZM160.907 33V15.5455H165.126V29.5739H172.387V33H160.907ZM174.571 33V15.5455H178.79V29.5739H186.051V33H174.571ZM204.03 24.2727C204.03 26.1932 203.661 27.821 202.922 29.1562C202.183 30.4915 201.183 31.5057 199.922 32.1989C198.666 32.892 197.257 33.2386 195.695 33.2386C194.126 33.2386 192.714 32.8892 191.459 32.1903C190.203 31.4915 189.206 30.4773 188.467 29.1477C187.734 27.8125 187.368 26.1875 187.368 24.2727C187.368 22.3523 187.734 20.7244 188.467 19.3892C189.206 18.054 190.203 17.0398 191.459 16.3466C192.714 15.6534 194.126 15.3068 195.695 15.3068C197.257 15.3068 198.666 15.6534 199.922 16.3466C201.183 17.0398 202.183 18.054 202.922 19.3892C203.661 20.7244 204.03 22.3523 204.03 24.2727ZM199.717 24.2727C199.717 23.1364 199.555 22.1761 199.232 21.392C198.913 20.608 198.453 20.0142 197.851 19.6108C197.254 19.2074 196.536 19.0057 195.695 19.0057C194.859 19.0057 194.141 19.2074 193.538 19.6108C192.936 20.0142 192.473 20.608 192.149 21.392C191.831 22.1761 191.672 23.1364 191.672 24.2727C191.672 25.4091 191.831 26.3693 192.149 27.1534C192.473 27.9375 192.936 28.5312 193.538 28.9347C194.141 29.3381 194.859 29.5398 195.695 29.5398C196.536 29.5398 197.254 29.3381 197.851 28.9347C198.453 28.5312 198.913 27.9375 199.232 27.1534C199.555 26.3693 199.717 25.4091 199.717 24.2727Z" fill="white"/>
</svg>
